<svg width="213" height="121" viewBox="0 0 213 121" fill="none" xmlns="http://www.w3.org/2000/svg">
<g clip-path="url(#clip0_1_1082)">
<path d="M220.174 40.0131H231.2V36.3367H222.011V32.6602H230.15V29.2464H222.011V25.5699H231.2V21.8935H218.073V36.3367L220.174 40.0131ZM199.433 40.0131H203.371V32.6602H211.51V40.0131H215.448V22.1561H211.51V29.2464H203.371V25.5699H208.622V21.8935H199.433V40.0131ZM193.132 40.0131H197.07V22.1561H187.881V25.8326H193.132V40.0131ZM213.085 19.2675H216.761V11.9146H225.162V8.50079H216.761V4.82435H226.212V1.41052H213.085V19.2675ZM198.908 15.3285C198.12 14.8032 197.595 14.278 197.07 13.2276C196.545 12.4398 196.282 11.3894 196.282 10.339C196.282 9.2886 196.545 8.50079 197.07 7.45038C197.595 6.66257 198.12 5.87476 198.908 5.34956C199.696 4.82435 200.746 4.56175 201.533 4.56175C202.583 4.56175 203.371 4.82435 204.159 5.34956C204.946 5.87476 205.734 6.39997 205.996 7.45038C206.522 8.23818 206.784 9.2886 206.784 10.339C206.784 11.3894 206.522 12.1772 205.996 13.2276C205.471 14.0154 204.946 14.8032 204.159 15.3285C203.371 15.8537 202.321 16.1163 201.533 16.1163C200.746 15.8537 199.696 15.5911 198.908 15.3285ZM206.259 18.2171C207.572 17.4293 208.884 16.3789 209.672 14.8032C210.46 13.4902 210.985 11.9146 210.985 10.0764C210.985 8.50079 210.46 6.92517 209.672 5.61216C208.884 4.29915 207.834 2.98613 206.259 2.19833C204.946 1.41052 203.371 0.885315 201.533 0.885315C199.958 0.885315 198.383 1.41052 196.808 2.19833C195.495 2.98613 194.182 4.03655 193.395 5.61216C192.607 6.92517 192.082 8.50079 192.082 10.0764C192.082 11.652 192.607 13.2276 193.395 14.8032C194.182 16.1163 195.232 17.4293 196.808 18.2171C198.12 19.0049 199.696 19.5301 201.533 19.5301C203.371 19.5301 204.946 19.0049 206.259 18.2171ZM433.881 38.9627C435.982 38.1749 437.819 36.8619 439.132 35.0236C440.445 33.448 440.97 31.3472 440.97 28.9838C440.97 26.3578 440.182 24.2569 438.87 22.6813C437.557 21.1057 435.719 19.7927 433.881 19.0049C432.044 18.2171 429.418 17.4293 426.53 16.6415C424.692 16.1163 423.38 15.8537 422.33 15.5911C421.279 15.3285 420.492 14.8032 419.967 14.278C419.442 13.7528 419.179 13.2276 419.179 12.4398C419.179 11.652 419.442 11.1268 419.967 10.339C420.492 9.8138 421.279 9.2886 422.33 9.02599C423.38 8.76339 424.43 8.50079 426.005 8.50079C428.368 8.50079 430.468 8.76339 432.569 9.5512C434.669 10.339 437.032 11.652 439.657 13.2276V5.08696C437.819 3.77394 435.719 2.72353 433.356 2.19833C430.993 1.41052 428.631 1.14792 426.268 1.14792C423.38 1.14792 421.017 1.67312 418.654 2.46093C416.291 3.24874 414.453 4.56175 413.141 6.39997C411.828 8.23819 411.04 10.0764 411.04 12.1772C411.04 14.8032 411.828 16.9041 413.141 18.4797C414.453 20.0553 416.029 21.3683 418.129 22.1561C419.967 22.9439 422.592 23.7317 425.48 24.5195L426.793 24.7821C428.893 25.3073 430.468 25.8326 431.518 26.6204C432.569 27.1456 433.094 28.196 433.094 29.2464C433.094 30.0342 432.831 30.5594 432.306 31.0846C431.781 31.6098 431.256 32.135 430.206 32.3976C429.156 32.6602 428.105 32.9228 426.793 32.9228C421.804 32.9228 416.816 31.3472 411.565 28.196V36.5992C414.453 37.9123 417.079 38.9627 419.442 39.4879C421.804 40.0131 424.167 40.5383 426.793 40.5383C429.156 40.2757 431.781 39.7505 433.881 38.9627ZM382.949 39.7505H406.315V32.135H386.887V24.2569H404.214V16.9041H386.887V9.02599H406.315V1.41052H378.485V32.135L382.949 39.7505ZM348.031 32.135V9.02599H354.332C356.695 9.02599 358.532 9.5512 360.37 10.6016C362.208 11.652 363.521 12.965 364.571 14.8032C365.621 16.6415 366.146 18.4797 366.146 20.5805C366.146 22.6813 365.621 24.7821 364.571 26.3578C363.521 28.196 362.208 29.509 360.37 30.5594C358.532 31.6098 356.695 32.135 354.332 32.135H348.031ZM344.093 39.7505H354.332C358.007 39.7505 361.158 38.9627 364.308 37.1245C367.196 35.5488 369.559 33.1854 371.397 30.2968C373.235 27.4082 374.022 23.9943 374.022 20.5805C374.022 16.9041 373.235 13.7528 371.397 10.8642C369.559 7.97558 367.196 5.61216 364.308 4.03654C361.42 2.46093 358.007 1.41052 354.332 1.41052H339.892V32.3976L344.093 39.7505ZM313.375 24.7821L319.151 7.18778L324.665 24.7821H313.375ZM299.723 39.7505H308.387L311.013 32.135H327.29L329.653 39.7505H338.054L325.19 1.41052H312.588L299.723 39.7505ZM274.257 20.0553V8.76339H282.921C284.496 8.76339 285.809 9.2886 286.859 10.339C287.909 11.3894 288.434 12.7024 288.434 14.278C288.434 15.8537 287.909 17.1667 286.859 18.2171C285.809 19.2675 284.496 19.7927 282.921 19.7927L274.257 20.0553ZM244.327 39.7505H252.466V9.02599H265.856V39.7505H274.257V27.1456H281.083L288.434 39.7505H297.098L288.959 26.0952C290.534 25.5699 291.847 24.5195 292.897 23.4691C293.947 22.4187 294.998 20.8431 295.523 19.5301C296.048 17.9545 296.573 16.3789 296.573 14.8032C296.573 12.4398 296.048 10.339 294.735 8.23818C293.422 6.13736 291.847 4.56175 289.747 3.24874C287.646 1.93573 285.284 1.41052 282.921 1.41052H232.776V9.02599H244.327V39.7505ZM174.492 39.7505H184.731L173.441 25.3073H163.202L174.492 39.7505ZM150.338 39.7505H158.477V30.2968L184.206 1.41052H173.967L158.477 19.2675V1.41052H150.338V39.7505ZM138.524 37.1245C141.674 35.0236 144.037 32.135 145.612 28.7212L137.736 26.6204C136.686 28.4586 135.636 29.7716 133.798 30.822C132.223 31.8724 130.385 32.3976 128.022 32.3976C125.659 32.3976 124.084 31.8724 122.246 30.822C120.408 29.7716 119.096 28.4586 118.046 26.6204C116.995 24.7821 116.47 22.9439 116.47 20.8431C116.47 18.7423 116.995 16.6415 118.046 14.8032C119.096 12.965 120.408 11.652 122.246 10.6016C124.084 9.5512 125.922 9.02599 128.022 9.02599C130.122 9.02599 131.96 9.5512 133.798 10.6016C135.373 11.652 136.686 13.2276 137.736 15.0658L145.612 12.7024C144.037 9.28859 141.674 6.39997 138.524 4.29915C135.373 2.19833 131.96 1.14792 128.022 1.14792C124.609 1.14792 121.196 1.93573 118.308 3.77394C115.158 5.61216 112.795 7.97558 111.219 10.8642C109.382 13.7528 108.594 17.1667 108.594 20.5805C108.594 23.9943 109.382 27.4082 111.219 30.2968C113.057 33.1854 115.42 35.8114 118.308 37.3871C121.196 39.2253 124.609 40.0131 128.022 40.0131C131.96 40.2757 135.373 39.2253 138.524 37.1245ZM95.7296 39.7505H103.606V1.41052H95.7296V39.7505ZM68.4254 20.0553V8.76339H77.0892C78.6645 8.76339 79.9772 9.2886 81.0273 10.339C82.0775 11.3894 82.6026 12.7024 82.6026 14.278C82.6026 15.8537 82.0775 17.1667 81.0273 18.2171C79.9772 19.2675 78.6645 19.7927 77.0892 19.7927L68.4254 20.0553ZM38.4958 39.7505H46.6346V9.02599H60.0241V39.7505H68.1629V27.1456H74.9889L82.34 39.7505H91.0039L82.8651 26.0952C84.4404 25.5699 85.7531 24.5195 86.8032 23.4691C87.8534 22.4187 88.9035 20.8431 89.4286 19.5301C89.9537 17.9545 90.4788 16.3789 90.4788 14.8032C90.4788 12.4398 89.9537 10.339 88.641 8.23818C87.3283 6.13736 85.7531 4.56175 83.6527 3.24874C81.5524 1.93573 79.1896 1.41052 76.8267 1.41052H26.6815V9.02599H38.2333L38.4958 39.7505Z" fill="#313543"/>
</g>
<g clip-path="url(#clip1_1_1082)">
<path d="M-10.2681 115.371H0.758564V111.695H-8.43034V108.018H-0.291601V104.604H-8.43034V100.928H0.758564V97.2516H-12.3684V111.695L-10.2681 115.371ZM-31.0088 115.371H-27.0707V108.018H-18.932V115.371H-14.9938V97.5142H-18.932V104.604H-27.0707V100.928H-21.8199V97.2516H-31.0088V115.371ZM-37.3098 115.371H-33.3717V97.5142H-42.5606V101.191H-37.3098V115.371ZM-17.3567 94.6256H-13.6811V87.2727H-5.27987V83.8589H-13.6811V80.1824H-4.2297V76.7686H-17.3567V94.6256ZM-31.5339 90.6865C-32.3215 90.1613 -32.8466 89.6361 -33.3717 88.5857C-33.8967 87.7979 -34.1593 86.7475 -34.1593 85.6971C-34.1593 84.6467 -33.8967 83.8589 -33.3717 82.8085C-32.8466 82.0207 -32.3215 81.2329 -31.5339 80.7076C-30.7463 80.1824 -29.6961 79.9198 -28.9085 79.9198C-27.8583 79.9198 -27.0707 80.1824 -26.2831 80.7076C-25.4955 81.2329 -24.7078 81.7581 -24.4453 82.8085C-23.9202 83.5963 -23.6577 84.6467 -23.6577 85.6971C-23.6577 86.7475 -23.9202 87.5353 -24.4453 88.5857C-24.9704 89.3735 -25.4955 90.1613 -26.2831 90.6865C-27.0707 91.2117 -28.1209 91.4744 -28.9085 91.4744C-29.6961 91.2117 -30.7463 90.9491 -31.5339 90.6865ZM-24.1828 93.5752C-22.8701 92.7874 -21.5573 91.737 -20.7697 90.1613C-19.9821 88.8483 -19.457 87.2727 -19.457 85.4345C-19.457 83.8589 -19.9821 82.2833 -20.7697 80.9703C-21.5573 79.6572 -22.6075 78.3442 -24.1828 77.5564C-25.4955 76.7686 -27.0707 76.2434 -28.9085 76.2434C-30.4837 76.2434 -32.059 76.7686 -33.6342 77.5564C-34.9469 78.3442 -36.2596 79.3946 -37.0472 80.9703C-37.8348 82.2833 -38.3599 83.8589 -38.3599 85.4345C-38.3599 87.0101 -37.8348 88.5857 -37.0472 90.1613C-36.2596 91.4744 -35.2094 92.7874 -33.6342 93.5752C-32.3215 94.363 -30.7463 94.8882 -28.9085 94.8882C-27.0707 94.8882 -25.4955 94.363 -24.1828 93.5752ZM203.44 114.321C205.54 113.533 207.378 112.22 208.69 110.382C210.003 108.806 210.528 106.705 210.528 104.342C210.528 101.716 209.741 99.615 208.428 98.0394C207.115 96.4638 205.277 95.1508 203.44 94.363C201.602 93.5752 198.976 92.7874 196.088 91.9996C194.251 91.4744 192.938 91.2118 191.888 90.9491C190.838 90.6865 190.05 90.1613 189.525 89.6361C189 89.1109 188.737 88.5857 188.737 87.7979C188.737 87.0101 189 86.4849 189.525 85.6971C190.05 85.1719 190.838 84.6467 191.888 84.3841C192.938 84.1215 193.988 83.8589 195.563 83.8589C197.926 83.8589 200.027 84.1215 202.127 84.9093C204.227 85.6971 206.59 87.0101 209.215 88.5857V80.445C207.378 79.132 205.277 78.0816 202.914 77.5564C200.552 76.7686 198.189 76.506 195.826 76.506C192.938 76.506 190.575 77.0312 188.212 77.819C185.849 78.6068 184.012 79.9198 182.699 81.7581C181.386 83.5963 180.599 85.4345 180.599 87.5353C180.599 90.1613 181.386 92.2622 182.699 93.8378C184.012 95.4134 185.587 96.7264 187.687 97.5142C189.525 98.302 192.15 99.0898 195.038 99.8776L196.351 100.14C198.451 100.665 200.027 101.191 201.077 101.978C202.127 102.504 202.652 103.554 202.652 104.604C202.652 105.392 202.389 105.917 201.864 106.443C201.339 106.968 200.814 107.493 199.764 107.756C198.714 108.018 197.664 108.281 196.351 108.281C191.363 108.281 186.374 106.705 181.124 103.554V111.957C184.012 113.27 186.637 114.321 189 114.846C191.363 115.371 193.726 115.896 196.351 115.896C198.714 115.634 201.339 115.109 203.44 114.321ZM152.507 115.109H175.873V107.493H156.445V99.615H173.773V92.2622H156.445V84.3841H175.873V76.7686H148.044V107.493L152.507 115.109ZM117.589 107.493V84.3841H123.89C126.253 84.3841 128.091 84.9093 129.928 85.9597C131.766 87.0101 133.079 88.3231 134.129 90.1613C135.179 91.9996 135.704 93.8378 135.704 95.9386C135.704 98.0394 135.179 100.14 134.129 101.716C133.079 103.554 131.766 104.867 129.928 105.917C128.091 106.968 126.253 107.493 123.89 107.493H117.589ZM113.651 115.109H123.89C127.565 115.109 130.716 114.321 133.866 112.483C136.754 110.907 139.117 108.544 140.955 105.655C142.793 102.766 143.58 99.3524 143.58 95.9386C143.58 92.2622 142.793 89.1109 140.955 86.2223C139.117 83.3337 136.754 80.9703 133.866 79.3946C130.978 77.819 127.565 76.7686 123.89 76.7686H109.45V107.756L113.651 115.109ZM82.9337 100.14L88.7095 82.5459L94.2229 100.14H82.9337ZM69.2816 115.109H77.9454L80.5708 107.493H96.8483L99.2111 115.109H107.612L94.748 76.7686H82.146L69.2816 115.109ZM43.8152 95.4134V84.1215H52.479C54.0542 84.1215 55.3669 84.6467 56.4171 85.6971C57.4672 86.7475 57.9923 88.0605 57.9923 89.6361C57.9923 91.2118 57.4672 92.5248 56.4171 93.5752C55.3669 94.6256 54.0542 95.1508 52.479 95.1508L43.8152 95.4134ZM13.8856 115.109H22.0243V84.3841H35.4139V115.109H43.8152V102.504H50.6412L57.9923 115.109H66.6561L58.5174 101.453C60.0926 100.928 61.4053 99.8776 62.4555 98.8272C63.5057 97.7768 64.5558 96.2012 65.0809 94.8882C65.606 93.3126 66.1311 91.737 66.1311 90.1613C66.1311 87.7979 65.606 85.6971 64.2933 83.5963C62.9806 81.4955 61.4054 79.9198 59.305 78.6068C57.2047 77.2938 54.8418 76.7686 52.479 76.7686H2.3338V84.3841H13.8856V115.109ZM-55.9501 115.109H-45.711L-57.0003 100.665H-67.2394L-55.9501 115.109ZM-80.1038 115.109H-71.9651V105.655L-46.2361 76.7686H-56.4752L-71.9651 94.6256V76.7686H-80.1038V115.109ZM-91.9181 112.483C-88.7676 110.382 -86.4048 107.493 -84.8295 104.079L-92.7057 101.978C-93.7559 103.817 -94.8061 105.13 -96.6438 106.18C-98.2191 107.231 -100.057 107.756 -102.42 107.756C-104.783 107.756 -106.358 107.231 -108.196 106.18C-110.033 105.13 -111.346 103.817 -112.396 101.978C-113.446 100.14 -113.972 98.302 -113.972 96.2012C-113.972 94.1004 -113.446 91.9996 -112.396 90.1613C-111.346 88.3231 -110.033 87.0101 -108.196 85.9597C-106.358 84.9093 -104.52 84.3841 -102.42 84.3841C-100.319 84.3841 -98.4816 84.9093 -96.6438 85.9597C-95.0686 87.0101 -93.7559 88.5857 -92.7057 90.4239L-84.8295 88.0605C-86.4048 84.6467 -88.7676 81.7581 -91.9181 79.6572C-95.0686 77.5564 -98.4816 76.506 -102.42 76.506C-105.833 76.506 -109.246 77.2938 -112.134 79.132C-115.284 80.9703 -117.647 83.3337 -119.222 86.2223C-121.06 89.1109 -121.848 92.5248 -121.848 95.9386C-121.848 99.3524 -121.06 102.766 -119.222 105.655C-117.385 108.544 -115.022 111.17 -112.134 112.745C-109.246 114.583 -105.833 115.371 -102.42 115.371C-98.4816 115.634 -95.0686 114.583 -91.9181 112.483ZM-134.712 115.109H-126.836V76.7686H-134.712V115.109ZM-162.016 95.4134V84.1215H-153.353C-151.777 84.1215 -150.465 84.6467 -149.414 85.6971C-148.364 86.7475 -147.839 88.0605 -147.839 89.6361C-147.839 91.2118 -148.364 92.5248 -149.414 93.5752C-150.465 94.6256 -151.777 95.1508 -153.353 95.1508L-162.016 95.4134ZM-191.946 115.109H-183.807V84.3841H-170.418V115.109H-162.279V102.504H-155.453L-148.102 115.109H-139.438L-147.577 101.453C-146.001 100.928 -144.689 99.8776 -143.639 98.8272C-142.588 97.7768 -141.538 96.2012 -141.013 94.8882C-140.488 93.3126 -139.963 91.737 -139.963 90.1613C-139.963 87.7979 -140.488 85.6971 -141.801 83.5963C-143.113 81.4955 -144.689 79.9198 -146.789 78.6068C-148.889 77.2938 -151.252 76.7686 -153.615 76.7686H-203.76V84.3841H-192.208L-191.946 115.109Z" fill="#313543"/>
</g>
<g clip-path="url(#clip2_1_1082)">
<path d="M90.5996 92.9454H103.385V88.6824H92.7306V84.4195H102.168V80.4611H92.7306V76.1981H103.385V71.9352H88.1642V88.6824L90.5996 92.9454ZM66.5502 92.9454H71.1166V84.4195H80.5537V92.9454H85.12V72.2397H80.5537V80.4611H71.1166V76.1981H77.205V71.9352H66.5502V92.9454ZM59.2441 92.9454H63.8104V72.2397H53.1556V76.5026H59.2441V92.9454ZM82.3802 68.8903H86.6421V60.3644H96.3836V56.406H86.6421V52.143H97.6013V48.1846H82.3802V68.8903ZM65.9414 64.3228C65.0281 63.7139 64.4193 63.1049 63.8104 61.8869C63.2016 60.9734 62.8971 59.7554 62.8971 58.5374C62.8971 57.3195 63.2016 56.406 63.8104 55.188C64.4193 54.2745 65.0281 53.361 65.9414 52.752C66.8546 52.143 68.0723 51.8386 68.9856 51.8386C70.2033 51.8386 71.1165 52.143 72.0298 52.752C72.9431 53.361 73.8564 53.97 74.1608 55.188C74.7696 56.1015 75.074 57.3195 75.074 58.5374C75.074 59.7554 74.7696 60.6689 74.1608 61.8869C73.5519 62.8004 72.9431 63.7139 72.0298 64.3228C71.1165 64.9318 69.8989 65.2363 68.9856 65.2363C68.0723 64.9318 66.8546 64.6273 65.9414 64.3228ZM74.4652 67.6723C75.9873 66.7588 77.5094 65.5408 78.4227 63.7139C79.336 62.1914 79.9448 60.3644 79.9448 58.2329C79.9448 56.406 79.336 54.579 78.4227 53.0565C77.5094 51.5341 76.2917 50.0116 74.4652 49.0981C72.9431 48.1846 71.1165 47.5756 68.9856 47.5756C67.1591 47.5756 65.3325 48.1846 63.506 49.0981C61.9839 50.0116 60.4618 51.2296 59.5485 53.0565C58.6352 54.579 58.0264 56.406 58.0264 58.2329C58.0264 60.0599 58.6352 61.8869 59.5485 63.7139C60.4618 65.2363 61.6795 66.7588 63.506 67.6723C65.0281 68.5858 66.8546 69.1948 68.9856 69.1948C71.1165 69.1948 72.9431 68.5858 74.4652 67.6723ZM338.4 91.7274C340.835 90.8139 342.966 89.2914 344.488 87.16C346.01 85.333 346.619 82.897 346.619 80.1566C346.619 77.1116 345.706 74.6757 344.184 72.8487C342.662 71.0217 340.531 69.4993 338.4 68.5858C336.269 67.6723 333.224 66.7588 329.876 65.8453C327.745 65.2363 326.223 64.9318 325.005 64.6273C323.787 64.3228 322.874 63.7139 322.265 63.1049C321.656 62.4959 321.352 61.8869 321.352 60.9734C321.352 60.0599 321.656 59.4509 322.265 58.5374C322.874 57.9285 323.787 57.3195 325.005 57.015C326.223 56.7105 327.44 56.406 329.267 56.406C332.007 56.406 334.442 56.7105 336.877 57.624C339.313 58.5374 342.053 60.0599 345.097 61.8869V52.4475C342.966 50.9251 340.531 49.7071 337.791 49.0981C335.051 48.1846 332.311 47.8801 329.571 47.8801C326.223 47.8801 323.483 48.4891 320.743 49.4026C318.003 50.3161 315.872 51.8386 314.35 53.97C312.828 56.1015 311.915 58.2329 311.915 60.6689C311.915 63.7139 312.828 66.1498 314.35 67.9768C315.872 69.8038 317.699 71.3262 320.134 72.2397C322.265 73.1532 325.309 74.0667 328.658 74.9802L330.18 75.2847C332.616 75.8936 334.442 76.5026 335.66 77.4161C336.878 78.0251 337.486 79.2431 337.486 80.4611C337.486 81.3746 337.182 81.9835 336.573 82.5925C335.964 83.2015 335.355 83.8105 334.138 84.115C332.92 84.4195 331.702 84.724 330.18 84.724C324.396 84.724 318.612 82.897 312.524 79.2431V88.9869C315.872 90.5094 318.917 91.7274 321.656 92.3364C324.396 92.9454 327.136 93.5544 330.18 93.5544C332.92 93.2499 335.964 92.6409 338.4 91.7274ZM279.342 92.6409H306.435V83.8105H283.908V74.6757H304V66.1498H283.908V57.015H306.435V48.1846H274.166V83.8105L279.342 92.6409ZM238.853 83.8105V57.015H246.16C248.899 57.015 251.03 57.624 253.161 58.8419C255.292 60.0599 256.814 61.5824 258.032 63.7139C259.25 65.8453 259.859 67.9768 259.859 70.4127C259.859 72.8487 259.25 75.2847 258.032 77.1116C256.814 79.2431 255.292 80.7656 253.161 81.9835C251.03 83.2015 248.899 83.8105 246.16 83.8105H238.853ZM234.287 92.6409H246.16C250.421 92.6409 254.075 91.7274 257.728 89.5959C261.076 87.769 263.816 85.0285 265.947 81.6791C268.078 78.3296 268.991 74.3712 268.991 70.4127C268.991 66.1498 268.078 62.4959 265.947 59.1464C263.816 55.797 261.076 53.0565 257.728 51.2296C254.379 49.4026 250.421 48.1846 246.16 48.1846H229.416V84.115L234.287 92.6409ZM198.67 75.2847L205.367 54.8835L211.76 75.2847H198.67ZM182.84 92.6409H192.886L195.93 83.8105H214.804L217.544 92.6409H227.285L212.369 48.1846H197.756L182.84 92.6409ZM153.311 69.8038V56.7105H163.357C165.183 56.7105 166.705 57.3195 167.923 58.5374C169.141 59.7554 169.749 61.2779 169.749 63.1049C169.749 64.9318 169.141 66.4543 167.923 67.6723C166.705 68.8903 165.183 69.4993 163.357 69.4993L153.311 69.8038ZM118.606 92.6409H128.044V57.015H143.569V92.6409H153.311V78.0251H161.226L169.749 92.6409H179.795L170.358 76.8071C172.185 76.1981 173.707 74.9802 174.925 73.7622C176.142 72.5442 177.36 70.7172 177.969 69.1948C178.578 67.3678 179.187 65.5408 179.187 63.7139C179.187 60.9734 178.578 58.5374 177.056 56.1015C175.534 53.6655 173.707 51.8386 171.272 50.3161C168.836 48.7936 166.096 48.1846 163.357 48.1846H105.212V57.015H118.606V92.6409ZM37.6301 92.6409H49.5026L36.4124 75.8936H24.5399L37.6301 92.6409ZM9.62318 92.6409H19.0603V81.6791L48.8937 48.1846H37.0212L19.0603 68.8903V48.1846H9.62318V92.6409ZM-4.07584 89.5959C-0.422764 87.16 2.31704 83.8105 4.14358 79.8521L-4.9891 77.4161C-6.20679 79.5476 -7.42448 81.0701 -9.55544 82.288C-11.382 83.506 -13.5129 84.115 -16.2527 84.115C-18.9925 84.115 -20.8191 83.506 -22.95 82.288C-25.081 81.0701 -26.6031 79.5476 -27.8208 77.4161C-29.0385 75.2847 -29.6473 73.1532 -29.6473 70.7172C-29.6473 68.2813 -29.0385 65.8453 -27.8208 63.7139C-26.6031 61.5824 -25.081 60.0599 -22.95 58.8419C-20.8191 57.624 -18.6881 57.015 -16.2527 57.015C-13.8174 57.015 -11.6864 57.624 -9.55544 58.8419C-7.72891 60.0599 -6.20679 61.8869 -4.9891 64.0183L4.14358 61.2779C2.31704 57.3195 -0.422764 53.97 -4.07584 51.5341C-7.72891 49.0981 -11.6864 47.8801 -16.2527 47.8801C-20.2102 47.8801 -24.1677 48.7936 -27.5164 50.9251C-31.1695 53.0565 -33.9093 55.797 -35.7358 59.1464C-37.8668 62.4959 -38.78 66.4543 -38.78 70.4127C-38.78 74.3712 -37.8668 78.3296 -35.7358 81.6791C-33.6048 85.0285 -30.865 88.0734 -27.5164 89.9004C-24.1677 92.0319 -20.2102 92.9454 -16.2527 92.9454C-11.6864 93.2499 -7.72891 92.0319 -4.07584 89.5959ZM-53.6967 92.6409H-44.5641V48.1846H-53.6967V92.6409ZM-85.3567 69.8038V56.7105H-75.3107C-73.4842 56.7105 -71.9621 57.3195 -70.7444 58.5374C-69.5267 59.7554 -68.9179 61.2779 -68.9179 63.1049C-68.9179 64.9318 -69.5267 66.4543 -70.7444 67.6723C-71.9621 68.8903 -73.4842 69.4993 -75.3107 69.4993L-85.3567 69.8038ZM-120.061 92.6409H-110.624V57.015H-95.0982V92.6409H-85.6611V78.0251H-77.7461L-69.2223 92.6409H-59.1763L-68.6134 76.8071C-66.7869 76.1981 -65.2648 74.9802 -64.0471 73.7622C-62.8294 72.5442 -61.6117 70.7172 -61.0029 69.1948C-60.394 67.3678 -59.7852 65.5408 -59.7852 63.7139C-59.7852 60.9734 -60.394 58.5374 -61.9161 56.1015C-63.4383 53.6655 -65.2648 51.8386 -67.7002 50.3161C-70.1356 48.7936 -72.8754 48.1846 -75.6152 48.1846H-133.76V57.015H-120.365L-120.061 92.6409Z" fill="#313543"/>
</g>
<g clip-path="url(#clip3_1_1082)">
<path d="M141.316 68.9438H154.102V64.6809H143.447V60.4179H152.884V56.4595H143.447V52.1966H154.102V47.9336H138.881V64.6809L141.316 68.9438ZM117.267 68.9438H121.833V60.4179H131.27V68.9438H135.836V48.2381H131.27V56.4595H121.833V52.1966V47.9336H117.267V68.9438ZM109.96 68.9438H114.527V48.2381H103.872V52.5011H109.96V68.9438ZM133.097 44.8887H137.359V36.3628H147.1V32.4044H137.359V28.1415H148.318V24.183H133.097V44.8887ZM116.658 40.3213C115.745 39.7123 115.136 39.1033 114.527 37.8853C113.918 36.9718 113.614 35.7538 113.614 34.5359C113.614 33.3179 113.918 32.4044 114.527 31.1864C115.136 30.2729 115.745 29.3594 116.658 28.7504C117.571 28.1415 118.789 27.837 119.702 27.837C120.92 27.837 121.833 28.1415 122.746 28.7504C123.659 29.3594 124.573 29.9684 124.877 31.1864C125.486 32.0999 125.79 33.3179 125.79 34.5359C125.79 35.7538 125.486 36.6673 124.877 37.8853C124.268 38.7988 123.659 39.7123 122.746 40.3213C121.833 40.9302 120.615 41.2347 119.702 41.2347C118.789 40.9302 117.571 40.6258 116.658 40.3213ZM125.182 43.6707C126.704 42.7572 128.226 41.5392 129.139 39.7123C130.052 38.1898 130.661 36.3628 130.661 34.2314C130.661 32.4044 130.052 30.5774 129.139 29.0549C128.226 27.5325 127.008 26.01 125.182 25.0965C123.66 24.183 121.833 23.574 119.702 23.574C117.875 23.574 116.049 24.183 114.222 25.0965C112.7 26.01 111.178 27.228 110.265 29.0549C109.352 30.5774 108.743 32.4044 108.743 34.2314C108.743 36.0583 109.352 37.8853 110.265 39.7123C111.178 41.2347 112.396 42.7572 114.222 43.6707C115.745 44.5842 117.571 45.1932 119.702 45.1932C121.833 45.1932 123.66 44.5842 125.182 43.6707ZM389.116 67.7258C391.551 66.8123 393.682 65.2898 395.204 63.1584C396.727 61.3314 397.335 58.8954 397.335 56.155C397.335 53.11 396.422 50.6741 394.9 48.8471C393.378 47.0201 391.247 45.4977 389.116 44.5842C386.985 43.6707 383.941 42.7572 380.592 41.8437C378.461 41.2347 376.939 40.9302 375.721 40.6258C374.504 40.3213 373.59 39.7123 372.982 39.1033C372.373 38.4943 372.068 37.8853 372.068 36.9718C372.068 36.0583 372.373 35.4493 372.982 34.5359C373.59 33.9269 374.504 33.3179 375.721 33.0134C376.939 32.7089 378.157 32.4044 379.983 32.4044C382.723 32.4044 385.159 32.7089 387.594 33.6224C390.029 34.5359 392.769 36.0583 395.813 37.8853V28.446C393.682 26.9235 391.247 25.7055 388.507 25.0965C385.767 24.183 383.028 23.8785 380.288 23.8785C376.939 23.8785 374.199 24.4875 371.459 25.401C368.72 26.3145 366.589 27.837 365.067 29.9684C363.545 32.0999 362.631 34.2314 362.631 36.6673C362.631 39.7123 363.545 42.1482 365.067 43.9752C366.589 45.8022 368.415 47.3246 370.851 48.2381C372.982 49.1516 376.026 50.0651 379.375 50.9786L380.897 51.2831C383.332 51.8921 385.159 52.5011 386.376 53.4145C387.594 54.0235 388.203 55.2415 388.203 56.4595C388.203 57.373 387.898 57.982 387.289 58.591C386.681 59.1999 386.072 59.8089 384.854 60.1134C383.636 60.4179 382.419 60.7224 380.897 60.7224C375.113 60.7224 369.329 58.8954 363.24 55.2415V64.9853C366.589 66.5078 369.633 67.7258 372.373 68.3348C375.113 68.9438 377.852 69.5528 380.897 69.5528C383.636 69.2483 386.681 68.6393 389.116 67.7258ZM330.058 68.6393H357.152V59.8089H334.624V50.6741H354.716V42.1482H334.624V33.0134H357.152V24.183H324.883V59.8089L330.058 68.6393ZM289.57 59.8089V33.0134H296.876C299.616 33.0134 301.747 33.6224 303.878 34.8403C306.009 36.0583 307.531 37.5808 308.748 39.7123C309.966 41.8437 310.575 43.9752 310.575 46.4112C310.575 48.8471 309.966 51.2831 308.748 53.11C307.531 55.2415 306.009 56.764 303.878 57.982C301.747 59.1999 299.616 59.8089 296.876 59.8089H289.57ZM285.003 68.6393H296.876C301.138 68.6393 304.791 67.7258 308.444 65.5943C311.793 63.7674 314.532 61.0269 316.663 57.6775C318.794 54.328 319.708 50.3696 319.708 46.4112C319.708 42.1482 318.794 38.4943 316.663 35.1448C314.532 31.7954 311.793 29.0549 308.444 27.228C305.095 25.401 301.138 24.183 296.876 24.183H280.133V60.1134L285.003 68.6393ZM249.386 51.2831L256.083 30.8819L262.476 51.2831H249.386ZM233.556 68.6393H243.602L246.646 59.8089H265.52L268.26 68.6393H278.002L263.085 24.183H248.473L233.556 68.6393ZM204.027 45.8022V32.7089H214.073C215.9 32.7089 217.422 33.3179 218.639 34.5359C219.857 35.7538 220.466 37.2763 220.466 39.1033C220.466 40.9302 219.857 42.4527 218.639 43.6707C217.422 44.8887 215.9 45.4977 214.073 45.4977L204.027 45.8022ZM169.323 68.6393H178.76V33.0134H194.286V68.6393H204.027V54.0235H211.942L220.466 68.6393H230.512L221.075 52.8055C222.901 52.1966 224.423 50.9786 225.641 49.7606C226.859 48.5426 228.076 46.7157 228.685 45.1932C229.294 43.3662 229.903 41.5392 229.903 39.7123C229.903 36.9718 229.294 34.5359 227.772 32.0999C226.25 29.6639 224.423 27.837 221.988 26.3145C219.553 24.792 216.813 24.183 214.073 24.183H155.928V33.0134H169.323V68.6393ZM88.3465 68.6393H100.219L87.1288 51.8921H75.2563L88.3465 68.6393ZM60.3396 68.6393H69.7767V57.6775L99.6101 24.183H87.7376L69.7767 44.8887V24.183H60.3396V68.6393ZM46.6406 65.5943C50.2937 63.1584 53.0335 59.8089 54.86 55.8505L45.7273 53.4145C44.5096 55.546 43.2919 57.0685 41.161 58.2865C39.3344 59.5044 37.2035 60.1134 34.4637 60.1134C31.7239 60.1134 29.8973 59.5044 27.7664 58.2865C25.6354 57.0685 24.1133 55.546 22.8956 53.4145C21.6779 51.2831 21.0691 49.1516 21.0691 46.7157C21.0691 44.2797 21.6779 41.8437 22.8956 39.7123C24.1133 37.5808 25.6354 36.0583 27.7664 34.8403C29.8973 33.6224 32.0283 33.0134 34.4637 33.0134C36.8991 33.0134 39.03 33.6224 41.161 34.8403C42.9875 36.0583 44.5096 37.8853 45.7273 40.0168L54.86 37.2763C53.0335 33.3179 50.2937 29.9684 46.6406 27.5325C42.9875 25.0965 39.03 23.8785 34.4637 23.8785C30.5062 23.8785 26.5487 24.792 23.2 26.9235C19.547 29.0549 16.8072 31.7954 14.9806 35.1448C12.8497 38.4943 11.9364 42.4527 11.9364 46.4112C11.9364 50.3696 12.8497 54.328 14.9806 57.6775C17.1116 61.0269 19.8514 64.0719 23.2 65.8988C26.5487 68.0303 30.5062 68.9438 34.4637 68.9438C39.03 69.2483 42.9875 68.0303 46.6406 65.5943ZM-2.9803 68.6393H6.15237V24.183H-2.9803V68.6393ZM-34.6403 45.8022V32.7089H-24.5943C-22.7678 32.7089 -21.2457 33.3179 -20.028 34.5359C-18.8103 35.7538 -18.2014 37.2763 -18.2014 39.1033C-18.2014 40.9302 -18.8103 42.4527 -20.028 43.6707C-21.2457 44.8887 -22.7678 45.4977 -24.5943 45.4977L-34.6403 45.8022ZM-69.3444 68.6393H-59.9073V33.0134H-44.3818V68.6393H-34.9447V54.0235H-27.0297L-18.5059 68.6393H-8.45992L-17.897 52.8055C-16.0705 52.1966 -14.5484 50.9786 -13.3307 49.7606C-12.113 48.5426 -10.8953 46.7157 -10.2865 45.1932C-9.67761 43.3662 -9.06877 41.5392 -9.06877 39.7123C-9.06877 36.9718 -9.67761 34.5359 -11.1997 32.0999C-12.7218 29.6639 -14.5484 27.837 -16.9838 26.3145C-19.4191 24.792 -22.1589 24.183 -24.8987 24.183H-83.0435V33.0134H-69.6489L-69.3444 68.6393Z" fill="#313543"/>
</g>
<path fill-rule="evenodd" clip-rule="evenodd" d="M69.333 68.673C74.9602 68.673 79.5219 64.1112 79.5219 58.4841C79.5219 52.8569 74.9602 48.2952 69.333 48.2952C63.7059 48.2952 59.1442 52.8569 59.1442 58.4841C59.1442 64.1112 63.7059 68.673 69.333 68.673ZM69.3372 64.5949C72.7135 64.5949 75.4505 61.8579 75.4505 58.4816C75.4505 55.1053 72.7135 52.3683 69.3372 52.3683C65.9609 52.3683 63.2239 55.1053 63.2239 58.4816C63.2239 61.8579 65.9609 64.5949 69.3372 64.5949Z" fill="#313543"/>
<defs>
<clipPath id="clip0_1_1082">
<rect width="160.511" height="39.8348" fill="white" transform="translate(26.6515 0.725586)"/>
</clipPath>
<clipPath id="clip1_1_1082">
<rect width="211.671" height="47.6455" fill="white" transform="translate(0.845337 72.5699)"/>
</clipPath>
<clipPath id="clip2_1_1082">
<rect width="22.6419" height="24.4533" fill="white" transform="translate(81.3375 46.4834)"/>
</clipPath>
<clipPath id="clip3_1_1082">
<rect width="54.3406" height="24.4533" fill="white" transform="translate(100.36 45.5785)"/>
</clipPath>
</defs>
</svg>
