<svg width="172" height="27" fill="none" xmlns="http://www.w3.org/2000/svg">
    <g clip-path="url(#a)" fill="#000">
        <path d="M87.595 12.986c-.323-.294-.769-.57-1.346-.847-.585-.199-1.39-.052-2.447.467-.934.458-1.966 1.071-3.075 1.84a32.636 32.636 0 0 1-.865-2.272c2.228-3.128 4.133-5.59 5.653-7.336.262-.302.385-.691.376-1.14-.009-.467-.21-.856-.603-1.158-.393-.311-.987-.39-1.835-.234-1.084.25-2.027.527-2.805.83-.446.155-.935.31-1.468.484-.822.267-1.46.751-1.888 1.451-.437.709-.568 1.512-.384 2.394.061.285.13.596.192.924.201.907.428 1.884.664 2.93-1.372 1.814-2.613 3.594-3.661 5.313-1.11 1.797-1.643 3.145-1.643 4.13 0 .424.114.735.323.933.192.173.472.25.813.216.63-.06 1.25-.293 1.844-.682.515-.354 1.18-.925 1.975-1.694.629-.613 1.354-1.27 2.158-1.961.839 2.402 1.931 4.38 3.268 5.893.367.38.857.579 1.46.579h.105a6.715 6.715 0 0 0 1.73-.294.722.722 0 0 0 .49-.588c.043-.276-.053-.527-.298-.726-1.6-1.088-3.225-3.222-4.832-6.35 1.686-1.227 3.661-2.005 5.88-2.325a.43.43 0 0 0 .359-.31c.052-.173 0-.338-.14-.476v.009Zm-4.413-8.312c-.909 1.028-2.28 2.687-4.08 4.942a42.21 42.21 0 0 1-.56-2.506c-.044-.302 0-.57.148-.803a1.19 1.19 0 0 1 .63-.493 28.39 28.39 0 0 0 1.232-.458c.743-.32 1.625-.596 2.604-.838.009.009.026.035.035.087 0 .026 0 .043-.018.069h.01Zm-4.22 11.068c-1.477 1.14-2.727 2.16-3.723 3.05a631.47 631.47 0 0 1 3.25-4.674c.15.535.306 1.08.472 1.624ZM12.146 25.851H8.014L5.907 15.595H4.063v10.256H0V.293h6.126c1.747 0 3.172.51 4.282 1.53 1.232 1.123 1.843 2.704 1.843 4.743v2.739c0 2.065-.611 3.664-1.843 4.787a3.654 3.654 0 0 1-.595.475l2.325 11.284h.008ZM8.197 6.575c0-.856-.183-1.46-.55-1.824-.323-.293-.821-.44-1.512-.44h-2.07v7.266h2.07c.69 0 1.198-.146 1.512-.44.367-.337.55-.95.55-1.823v-2.74ZM20.457 26.137c-1.774 0-3.198-.5-4.282-1.495-1.232-1.166-1.844-2.764-1.844-4.786V6.282c0-2.022.612-3.612 1.844-4.787C17.259.493 18.683 0 20.457 0s3.198.501 4.282 1.495c1.232 1.166 1.843 2.765 1.843 4.787v13.582c0 2.022-.611 3.612-1.843 4.787-1.084 1.002-2.508 1.495-4.282 1.495v-.009Zm0-22.128c-.69 0-1.197.147-1.512.44-.367.338-.55.951-.55 1.824v13.583c0 .872.183 1.486.55 1.823.323.294.821.44 1.512.44.69 0 1.214-.146 1.511-.44.367-.32.551-.925.551-1.823V6.282c0-.899-.183-1.512-.55-1.824-.298-.293-.804-.44-1.512-.44v-.009ZM34.745 26.138c-1.774 0-3.198-.501-4.282-1.495-1.232-1.166-1.844-2.765-1.844-4.787V16.53h4.063v3.326c0 .873.184 1.487.551 1.824.323.293.822.44 1.512.44.69 0 1.215-.147 1.512-.44.367-.32.55-.925.55-1.823v-1.608c0-1.123-.454-2.09-1.363-2.92-.201-.173-.717-.484-1.547-.95-1.153-.605-2.01-1.141-2.551-1.608-.883-.777-1.565-1.667-2.028-2.66-.472-.995-.699-2.066-.699-3.215v-.622c0-2.022.612-3.612 1.844-4.787C31.547.485 32.971-.008 34.745-.008s3.198.501 4.282 1.495c1.232 1.166 1.843 2.765 1.843 4.787v2.229h-4.063v-2.23c0-.898-.183-1.511-.55-1.822-.297-.294-.804-.441-1.512-.441s-1.197.147-1.512.44c-.367.338-.55.951-.55 1.824v.622c0 1.123.454 2.082 1.363 2.886.244.199.725.484 1.442.873 1.275.682 2.167 1.244 2.656 1.676 1.818 1.607 2.735 3.577 2.735 5.918v1.608c0 2.021-.611 3.611-1.844 4.786-1.083 1.003-2.507 1.495-4.281 1.495h-.01ZM49.11 26.137c-1.721 0-3.154-.5-4.282-1.495-1.232-1.218-1.844-2.808-1.844-4.786V6.282c0-1.97.612-3.569 1.844-4.787C45.964.493 47.388 0 49.11 0s3.198.501 4.282 1.495c1.232 1.166 1.844 2.765 1.844 4.787v2.263h-4.064V6.282c0-.899-.174-1.512-.515-1.824-.323-.293-.84-.44-1.547-.44-.708 0-1.197.147-1.512.44-.367.337-.55.95-.55 1.824v13.582c0 .873.183 1.486.55 1.823.324.294.822.441 1.512.441.69 0 1.232-.147 1.547-.44.34-.32.515-.925.515-1.824v-3.283h4.064v3.283c0 2.022-.612 3.612-1.844 4.787-1.084 1.002-2.508 1.495-4.282 1.495v-.009ZM63.582 26.137c-1.774 0-3.199-.5-4.282-1.495-1.232-1.166-1.844-2.764-1.844-4.786V6.282c0-2.022.612-3.612 1.844-4.787C60.384.493 61.808 0 63.582 0s3.198.501 4.282 1.495c1.232 1.166 1.843 2.765 1.843 4.787v13.582c0 2.022-.611 3.612-1.843 4.787-1.084 1.002-2.508 1.495-4.282 1.495v-.009Zm0-22.128c-.69 0-1.197.147-1.512.44-.367.338-.55.951-.55 1.824v13.583c0 .872.183 1.486.55 1.823.323.294.821.44 1.512.44.69 0 1.214-.146 1.512-.44.367-.32.55-.925.55-1.823V6.282c0-.899-.184-1.512-.55-1.824-.298-.293-.804-.44-1.512-.44v-.009ZM94.682 25.836h-4.064V.277h6.126c1.748 0 3.172.51 4.282 1.53 1.232 1.123 1.844 2.704 1.844 4.743v2.774c0 2.065-.612 3.663-1.844 4.787-1.084 1.002-2.508 1.494-4.282 1.494h-2.071v10.222l.009.009Zm0-14.24h2.07c.69 0 1.198-.147 1.512-.44.367-.337.55-.95.55-1.824V6.56c0-.855-.183-1.46-.55-1.823-.323-.294-.821-.44-1.511-.44h-2.071v7.3ZM109.152 4.295v6.429h4.579v4.017h-4.579v7.085h6.65v4.018h-10.704V.277h10.704v4.018h-6.65ZM130.457 25.836h-4.133l-2.106-10.256h-1.844v10.256h-4.063V.277h6.125c1.748 0 3.172.51 4.282 1.53 1.232 1.123 1.844 2.704 1.844 4.743v2.74c0 2.064-.612 3.663-1.844 4.786a3.667 3.667 0 0 1-.594.475l2.324 11.285h.009Zm-3.95-19.277c0-.855-.183-1.46-.55-1.823-.324-.294-.822-.44-1.512-.44h-2.071v7.266h2.071c.69 0 1.197-.147 1.512-.44.367-.338.55-.951.55-1.824v-2.74ZM143.678 25.836h-10.704V.277h4.063v21.54h6.65v4.019h-.009ZM149.699 25.836h-4.063V.277h4.063v25.559ZM165.131 25.836h-2.359l-6.205-12.96v12.96h-4.063V.277h2.359l6.205 12.926V.277h4.063v25.559ZM172 25.836h-4.063V.277H172v25.559Z"/>
    </g>
    <defs>
        <clipPath id="a">
            <path fill="#fff" d="M0 0h172v26.137H0z"/>
        </clipPath>
    </defs>
</svg>
