<svg width="214" height="151" viewBox="0 0 214 151" fill="none" xmlns="http://www.w3.org/2000/svg">
<g clip-path="url(#clip0_316_43277)">
<path d="M144.458 107.17H152.489V115.329H144.458V107.17ZM186.884 113.799L180 107.234V91.5535L186.884 85.3069V113.799ZM161.834 87.6016C160.347 86.4117 158.838 85.2431 157.308 84.0958L161.834 80.7175H179.235L183.697 84.0958L179.235 87.6016H161.834ZM154.249 83.076V54.5838L161.133 60.7666V76.5744L154.249 83.076ZM186.693 54.5838V83.076L179.809 76.8931V61.1491L186.693 54.5838ZM216.383 68.0297C218.175 68.0297 219.707 68.6646 220.976 69.9344C222.246 71.2043 222.881 72.7356 222.881 74.5283C222.881 76.321 222.246 77.8523 220.976 79.1221C219.707 80.3919 218.175 81.0269 216.383 81.0269C214.577 81.0269 213.04 80.3919 211.77 79.1221C210.5 77.8523 209.865 76.321 209.865 74.5283C209.865 72.7356 210.5 71.2043 211.77 69.9344C213.04 68.6646 214.577 68.0297 216.383 68.0297ZM213.675 54.3976H215.748L200.79 81.7365H198.717L213.675 54.3976ZM198.045 65.4527C199.115 65.4527 200.024 65.0792 200.771 64.3322C201.531 63.5728 201.91 62.664 201.91 61.6058C201.91 60.5476 201.531 59.645 200.771 58.8981C200.024 58.1386 199.115 57.7589 198.045 57.7589C196.986 57.7589 196.078 58.1324 195.318 58.8794C194.571 59.6263 194.198 60.5352 194.198 61.6058C194.198 62.664 194.571 63.5728 195.318 64.3322C196.078 65.0792 196.986 65.4527 198.045 65.4527ZM198.045 55.0885C199.85 55.0885 201.387 55.7297 202.657 57.012C203.927 58.2818 204.562 59.8131 204.562 61.6058C204.562 63.3985 203.927 64.9298 202.657 66.1996C201.387 67.4695 199.85 68.1044 198.045 68.1044C196.252 68.1044 194.721 67.4695 193.451 66.1996C192.181 64.9298 191.546 63.3985 191.546 61.6058C191.546 59.8131 192.181 58.2818 193.451 57.012C194.721 55.7297 196.252 55.0885 198.045 55.0885ZM216.383 78.3751C217.441 78.3751 218.343 78.0017 219.09 77.2547C219.85 76.4953 220.23 75.5865 220.23 74.5283C220.23 73.4701 219.85 72.5675 219.09 71.8205C218.343 71.0611 217.441 70.6814 216.383 70.6814C215.312 70.6814 214.397 71.0611 213.638 71.8205C212.891 72.5675 212.517 73.4701 212.517 74.5283C212.517 75.5865 212.891 76.4953 213.638 77.2547C214.397 78.0017 215.312 78.3751 216.383 78.3751Z" fill="black" style="mix-blend-mode:soft-light"/>
<path d="M144.458 107.17H152.489V115.329H144.458V107.17ZM186.884 113.799L180 107.234V91.5535L186.884 85.3069V113.799ZM161.834 87.6016C160.347 86.4117 158.838 85.2431 157.308 84.0958L161.834 80.7175H179.235L183.697 84.0958L179.235 87.6016H161.834ZM154.249 83.076V54.5838L161.133 60.7666V76.5744L154.249 83.076ZM186.693 54.5838V83.076L179.809 76.8931V61.1491L186.693 54.5838ZM216.383 68.0297C218.175 68.0297 219.707 68.6646 220.976 69.9344C222.246 71.2043 222.881 72.7356 222.881 74.5283C222.881 76.321 222.246 77.8523 220.976 79.1221C219.707 80.3919 218.175 81.0269 216.383 81.0269C214.577 81.0269 213.04 80.3919 211.77 79.1221C210.5 77.8523 209.865 76.321 209.865 74.5283C209.865 72.7356 210.5 71.2043 211.77 69.9344C213.04 68.6646 214.577 68.0297 216.383 68.0297ZM213.675 54.3976H215.748L200.79 81.7365H198.717L213.675 54.3976ZM198.045 65.4527C199.115 65.4527 200.024 65.0792 200.771 64.3322C201.531 63.5728 201.91 62.664 201.91 61.6058C201.91 60.5476 201.531 59.645 200.771 58.8981C200.024 58.1386 199.115 57.7589 198.045 57.7589C196.986 57.7589 196.078 58.1324 195.318 58.8794C194.571 59.6263 194.198 60.5352 194.198 61.6058C194.198 62.664 194.571 63.5728 195.318 64.3322C196.078 65.0792 196.986 65.4527 198.045 65.4527ZM198.045 55.0885C199.85 55.0885 201.387 55.7297 202.657 57.012C203.927 58.2818 204.562 59.8131 204.562 61.6058C204.562 63.3985 203.927 64.9298 202.657 66.1996C201.387 67.4695 199.85 68.1044 198.045 68.1044C196.252 68.1044 194.721 67.4695 193.451 66.1996C192.181 64.9298 191.546 63.3985 191.546 61.6058C191.546 59.8131 192.181 58.2818 193.451 57.012C194.721 55.7297 196.252 55.0885 198.045 55.0885ZM216.383 78.3751C217.441 78.3751 218.343 78.0017 219.09 77.2547C219.85 76.4953 220.23 75.5865 220.23 74.5283C220.23 73.4701 219.85 72.5675 219.09 71.8205C218.343 71.0611 217.441 70.6814 216.383 70.6814C215.312 70.6814 214.397 71.0611 213.638 71.8205C212.891 72.5675 212.517 73.4701 212.517 74.5283C212.517 75.5865 212.891 76.4953 213.638 77.2547C214.397 78.0017 215.312 78.3751 216.383 78.3751Z" fill="black" style="mix-blend-mode:soft-light"/>
<path d="M17.8006 115.364L28.1196 104.544H52.8652L62.5831 115.364H17.8006ZM14.795 66.1733L25.615 76.5925V101.138L14.795 110.956V66.1733ZM26.4164 69.78C24.0788 67.9099 21.7078 66.0731 19.3033 64.2698L26.4164 58.96H53.7668L60.7798 64.2698L53.7668 69.78H26.4164ZM17.7004 13.5764H62.4829L52.5646 24.3963H28.0194L17.7004 13.5764ZM65.4884 17.8843V62.6669L54.6685 52.949V28.2033L65.4884 17.8843ZM88.9121 115.364L99.2311 104.544H123.977L133.695 115.364H88.9121ZM85.9065 66.1733L96.7265 76.5925V101.138L85.9065 110.956V66.1733ZM136.901 110.956L126.081 100.637V75.9914L136.901 66.1733V110.956ZM97.528 69.78C95.1903 67.9099 92.8193 66.0731 90.4148 64.2698L97.528 58.96H124.878L131.891 64.2698L124.878 69.78H97.528ZM88.8119 13.5764H133.594L123.676 24.3963H99.1309L88.8119 13.5764ZM85.606 62.6669V17.8843L96.4259 27.6022V52.448L85.606 62.6669Z" fill="black" style="mix-blend-mode:soft-light"/>
<path d="M17.8006 115.364L28.1196 104.544H52.8652L62.5831 115.364H17.8006ZM14.795 66.1733L25.615 76.5925V101.138L14.795 110.956V66.1733ZM26.4164 69.78C24.0788 67.9099 21.7078 66.0731 19.3033 64.2698L26.4164 58.96H53.7668L60.7798 64.2698L53.7668 69.78H26.4164ZM17.7004 13.5764H62.4829L52.5646 24.3963H28.0194L17.7004 13.5764ZM65.4884 17.8843V62.6669L54.6685 52.949V28.2033L65.4884 17.8843ZM88.9121 115.364L99.2311 104.544H123.977L133.695 115.364H88.9121ZM85.9065 66.1733L96.7265 76.5925V101.138L85.9065 110.956V66.1733ZM136.901 110.956L126.081 100.637V75.9914L136.901 66.1733V110.956ZM97.528 69.78C95.1903 67.9099 92.8193 66.0731 90.4148 64.2698L97.528 58.96H124.878L131.891 64.2698L124.878 69.78H97.528ZM88.8119 13.5764H133.594L123.676 24.3963H99.1309L88.8119 13.5764ZM85.606 62.6669V17.8843L96.4259 27.6022V52.448L85.606 62.6669Z" fill="black" style="mix-blend-mode:soft-light"/>
</g>
<defs>
<clipPath id="clip0_316_43277">
<rect width="213.511" height="149.64" fill="white" transform="translate(0.0678711 0.761963)"/>
</clipPath>
</defs>
</svg>
